<?xml version="1.0" encoding="UTF-8"?>
<svg xmlns="http://www.w3.org/2000/svg" width="211" height="63" viewBox="0 0 211 63" fill="none">
  <rect width="211" height="63" rx="9.33333" fill="#202020"></rect>
  <path d="M37.3863 32.5757C37.4205 29.9639 38.8473 27.4926 41.1107 26.1246C39.6828 24.1199 37.2912 22.8488 34.8029 22.7722C32.149 22.4984 29.5761 24.3334 28.2237 24.3334C26.8451 24.3334 24.7629 22.7994 22.5207 22.8448C19.598 22.9376 16.8734 24.5711 15.4515 27.0831C12.3949 32.2855 14.6748 39.9314 17.6028 44.1367C19.0677 46.1959 20.7797 48.496 23.0199 48.4145C25.2121 48.3251 26.0308 47.0403 28.677 47.0403C31.2986 47.0403 32.0667 48.4145 34.3523 48.3626C36.7046 48.3251 38.1867 46.2943 39.6002 44.2156C40.6528 42.7483 41.4627 41.1267 42 39.4107C39.2356 38.2613 37.3895 35.5264 37.3863 32.5757Z" fill="white"></path>
  <path d="M33.0691 20.0066C34.3516 18.493 34.9835 16.5475 34.8305 14.5833C32.871 14.7856 31.061 15.7062 29.7611 17.1618C28.49 18.5839 27.8285 20.4952 27.9535 22.3844C29.9137 22.4042 31.8408 21.5085 33.0691 20.0066Z" fill="white"></path>
  <path d="M56 12.0985V20.8724H59.3928C62.193 20.8724 63.8145 19.2611 63.8145 16.4581C63.8145 13.6976 62.1799 12.0985 59.3928 12.0985H56ZM57.4587 13.3388H59.23C61.1771 13.3388 62.3297 14.4941 62.3297 16.4763C62.3297 18.4889 61.1966 19.632 59.23 19.632H57.4587V13.3388Z" fill="white"></path>
  <path d="M68.7806 21.0001C70.8514 21.0001 72.1213 19.705 72.1213 17.5586C72.1213 15.4244 70.8449 14.1232 68.7806 14.1232C66.7097 14.1232 65.4334 15.4244 65.4334 17.5586C65.4334 19.705 66.7032 21.0001 68.7806 21.0001ZM68.7806 19.8387C67.5628 19.8387 66.879 19.0057 66.879 17.5586C66.879 16.1236 67.5628 15.2846 68.7806 15.2846C69.9918 15.2846 70.6821 16.1236 70.6821 17.5586C70.6821 18.9996 69.9918 19.8387 68.7806 19.8387Z" fill="white"></path>
  <path d="M82.9352 14.2509H81.5351L80.2717 19.3037H80.161L78.7023 14.2509H77.3609L75.9022 19.3037H75.798L74.5281 14.2509H73.1085L75.0621 20.8724H76.5013L77.96 15.996H78.0707L79.5359 20.8724H80.9881L82.9352 14.2509Z" fill="white"></path>
  <path d="M84.5476 20.8724H85.9477V16.9992C85.9477 15.9656 86.6054 15.321 87.6408 15.321C88.6762 15.321 89.1711 15.85 89.1711 16.9141V20.8724H90.5712V16.5857C90.5712 15.0109 89.6986 14.1232 88.1162 14.1232C87.0482 14.1232 86.3449 14.5671 85.9997 15.3028H85.8956V14.2509H84.5476V20.8724Z" fill="white"></path>
  <path d="M92.7762 20.8724H94.1763V11.6667H92.7762V20.8724Z" fill="white"></path>
  <path d="M99.4419 21.0001C101.513 21.0001 102.783 19.705 102.783 17.5586C102.783 15.4244 101.506 14.1232 99.4419 14.1232C97.3711 14.1232 96.0947 15.4244 96.0947 17.5586C96.0947 19.705 97.3646 21.0001 99.4419 21.0001ZM99.4419 19.8387C98.2242 19.8387 97.5404 19.0057 97.5404 17.5586C97.5404 16.1236 98.2242 15.2846 99.4419 15.2846C100.653 15.2846 101.343 16.1236 101.343 17.5586C101.343 18.9996 100.653 19.8387 99.4419 19.8387Z" fill="white"></path>
  <path d="M106.954 19.8813C106.192 19.8813 105.639 19.5347 105.639 18.9388C105.639 18.3551 106.082 18.045 107.058 17.9842L108.791 17.8809V18.4342C108.791 19.255 108.009 19.8813 106.954 19.8813ZM106.596 20.9818C107.527 20.9818 108.302 20.6049 108.726 19.9421H108.836V20.8724H110.184V16.3486C110.184 14.9501 109.181 14.1232 107.404 14.1232C105.795 14.1232 104.649 14.8528 104.506 15.9899H105.86C106.017 15.5217 106.557 15.2542 107.338 15.2542C108.296 15.2542 108.791 15.6494 108.791 16.3486V16.9202L106.87 17.0235C105.183 17.1208 104.232 17.8079 104.232 18.9996C104.232 20.2096 105.229 20.9818 106.596 20.9818Z" fill="white"></path>
  <path d="M114.935 20.9818C115.912 20.9818 116.739 20.5501 117.163 19.8266H117.273V20.8724H118.615V11.6667H117.215V15.3028H117.11C116.726 14.5732 115.906 14.1414 114.935 14.1414C113.145 14.1414 111.992 15.467 111.992 17.5586C111.992 19.6563 113.132 20.9818 114.935 20.9818ZM115.333 15.315C116.505 15.315 117.241 16.1844 117.241 17.5647C117.241 18.951 116.511 19.8083 115.333 19.8083C114.147 19.8083 113.438 18.9632 113.438 17.5586C113.438 16.1662 114.154 15.315 115.333 15.315Z" fill="white"></path>
  <path d="M127.694 21.0001C129.765 21.0001 131.035 19.705 131.035 17.5586C131.035 15.4244 129.758 14.1232 127.694 14.1232C125.623 14.1232 124.347 15.4244 124.347 17.5586C124.347 19.705 125.617 21.0001 127.694 21.0001ZM127.694 19.8387C126.476 19.8387 125.792 19.0057 125.792 17.5586C125.792 16.1236 126.476 15.2846 127.694 15.2846C128.905 15.2846 129.595 16.1236 129.595 17.5586C129.595 18.9996 128.905 19.8387 127.694 19.8387Z" fill="white"></path>
  <path d="M132.888 20.8724H134.288V16.9992C134.288 15.9656 134.946 15.321 135.981 15.321C137.017 15.321 137.511 15.85 137.511 16.9141V20.8724H138.912V16.5857C138.912 15.0109 138.039 14.1232 136.456 14.1232C135.389 14.1232 134.685 14.5671 134.34 15.3028H134.236V14.2509H132.888V20.8724Z" fill="white"></path>
  <path d="M145.36 12.6031V14.2813H144.233V15.3818H145.36V19.1213C145.36 20.3981 145.978 20.9089 147.535 20.9089C147.808 20.9089 148.069 20.8785 148.297 20.842V19.7536C148.101 19.7719 147.978 19.784 147.763 19.784C147.066 19.784 146.76 19.48 146.76 18.7868V15.3818H148.297V14.2813H146.76V12.6031H145.36Z" fill="white"></path>
  <path d="M150.176 20.8724H151.576V17.0053C151.576 16.002 152.214 15.3271 153.36 15.3271C154.35 15.3271 154.878 15.8622 154.878 16.9202V20.8724H156.278V16.5979C156.278 15.0231 155.347 14.1293 153.836 14.1293C152.768 14.1293 152.019 14.5732 151.674 15.315H151.563V11.6667H150.176V20.8724Z" fill="white"></path>
  <path d="M161.329 15.2359C162.364 15.2359 163.041 15.9108 163.074 16.9506H159.492C159.57 15.9169 160.293 15.2359 161.329 15.2359ZM163.067 19.0848C162.807 19.6016 162.227 19.8874 161.381 19.8874C160.261 19.8874 159.538 19.1517 159.492 17.9903V17.9173H164.5V17.4613C164.5 15.3818 163.308 14.1232 161.335 14.1232C159.336 14.1232 158.066 15.467 158.066 17.5829C158.066 19.6989 159.31 21.0001 161.342 21.0001C162.963 21.0001 164.096 20.2704 164.415 19.0848H163.067Z" fill="white"></path>
  <path d="M129.883 29.0573V32.6277H127.629V34.9691H129.883V42.9249C129.883 45.6415 131.12 46.7282 134.234 46.7282C134.781 46.7282 135.302 46.6635 135.758 46.5859V44.2703C135.367 44.3091 135.12 44.335 134.69 44.335C133.296 44.335 132.684 43.6882 132.684 42.2134V34.9691H135.758V32.6277H132.684V29.0573H129.883Z" fill="white"></path>
  <path d="M143.69 46.9222C147.833 46.9222 150.374 44.1668 150.374 39.6003C150.374 35.0597 147.82 32.2913 143.69 32.2913C139.547 32.2913 136.994 35.0597 136.994 39.6003C136.994 44.1668 139.534 46.9222 143.69 46.9222ZM143.69 44.4514C141.254 44.4514 139.886 42.6791 139.886 39.6003C139.886 36.5474 141.254 34.7622 143.69 34.7622C146.114 34.7622 147.495 36.5474 147.495 39.6003C147.495 42.6662 146.114 44.4514 143.69 44.4514Z" fill="white"></path>
  <path d="M152.547 46.6506H155.348V38.3326C155.348 36.3533 156.847 35.0209 158.97 35.0209C159.465 35.0209 160.299 35.1114 160.534 35.1891V32.4466C160.234 32.369 159.7 32.3302 159.283 32.3302C157.433 32.3302 155.857 33.3392 155.453 34.7234H155.244V32.563H152.547V46.6506Z" fill="white"></path>
  <path d="M167.489 34.6587C169.56 34.6587 170.915 36.0946 170.98 38.3067H163.815C163.971 36.1075 165.417 34.6587 167.489 34.6587ZM170.967 42.8473C170.446 43.9469 169.286 44.5549 167.593 44.5549C165.352 44.5549 163.906 42.9896 163.815 40.5188V40.3636H173.833V39.3933C173.833 34.9691 171.449 32.2913 167.502 32.2913C163.502 32.2913 160.961 35.1503 160.961 39.6521C160.961 44.1539 163.45 46.9222 167.515 46.9222C170.759 46.9222 173.026 45.3699 173.664 42.8473H170.967Z" fill="white"></path>
  <path d="M111.514 41.4483C111.73 44.9075 114.633 47.1199 118.954 47.1199C123.572 47.1199 126.462 44.8003 126.462 41.0996C126.462 38.1901 124.814 36.5811 120.817 35.656L118.67 35.1331C116.132 34.5431 115.105 33.752 115.105 32.371C115.105 30.628 116.699 29.4883 119.089 29.4883C121.358 29.4883 122.924 30.6012 123.207 32.3844H126.151C125.976 29.1263 123.086 26.8335 119.129 26.8335C114.876 26.8335 112.04 29.1263 112.04 32.5721C112.04 35.4146 113.647 37.1041 117.171 37.9219L119.683 38.5253C122.262 39.1287 123.397 40.0136 123.397 41.4885C123.397 43.2047 121.614 44.4517 119.183 44.4517C116.577 44.4517 114.768 43.2852 114.511 41.4483H111.514Z" fill="white"></path>
  <path d="M82.4975 32.3302C80.5693 32.3302 78.9017 33.2874 78.0418 34.8915H77.8334V32.563H75.1366V51.3335H77.9376V44.5161H78.1591C78.9017 46.0038 80.5042 46.8834 82.5235 46.8834C86.1063 46.8834 88.3862 44.0763 88.3862 39.6003C88.3862 35.1244 86.1063 32.3302 82.4975 32.3302ZM81.7028 44.3867C79.3577 44.3867 77.8855 42.5498 77.8855 39.6133C77.8855 36.6638 79.3577 34.8268 81.7158 34.8268C84.0869 34.8268 85.507 36.625 85.507 39.6003C85.507 42.5886 84.0869 44.3867 81.7028 44.3867Z" fill="white"></path>
  <path d="M98.1876 32.3302C96.2594 32.3302 94.5918 33.2874 93.7319 34.8915H93.5235V32.563H90.8267V51.3335H93.6277V44.5161H93.8492C94.5918 46.0038 96.1943 46.8834 98.2136 46.8834C101.796 46.8834 104.076 44.0763 104.076 39.6003C104.076 35.1244 101.796 32.3302 98.1876 32.3302ZM97.3929 44.3867C95.0478 44.3867 93.5756 42.5498 93.5756 39.6133C93.5756 36.6638 95.0478 34.8268 97.4059 34.8268C99.777 34.8268 101.197 36.625 101.197 39.6003C101.197 42.5886 99.777 44.3867 97.3929 44.3867Z" fill="white"></path>
  <path d="M70.111 46.6506H73.3248L66.2895 27.3028H63.0352L56 46.6506H59.1058L60.9017 41.5153H68.3285L70.111 46.6506ZM64.5071 30.8157H64.7367L67.5588 38.9946H61.6714L64.5071 30.8157Z" fill="white"></path>
</svg>
