<?xml version="1.0" encoding="UTF-8"?>
<svg xmlns="http://www.w3.org/2000/svg" width="212" height="63" viewBox="0 0 212 63" fill="none">
  <rect width="211.167" height="63" rx="9.33333" fill="#202020"></rect>
  <path d="M30.8859 30.6101L14.1543 48.0371C14.1549 48.0407 14.1562 48.0438 14.1568 48.0474C14.6699 49.9396 16.4312 51.333 18.5215 51.333C19.3571 51.333 20.1416 51.1113 20.8144 50.7221L20.8678 50.6914L39.7014 40.0267L30.8859 30.6101Z" fill="#EA4335"></path>
  <path d="M47.8133 27.6424L47.7972 27.6316L39.6663 23.0061L30.5059 31.0052L39.6982 40.0247L47.7862 35.4451C49.2043 34.6939 50.1668 33.2269 50.1668 31.5353C50.1668 29.8558 49.2171 28.3961 47.8133 27.6424Z" fill="#FBBC04"></path>
  <path d="M14.1534 14.9615C14.0529 15.3254 14 15.7067 14 16.1025V46.8968C14 47.2919 14.0522 47.6744 14.1541 48.0371L31.4615 31.056L14.1534 14.9615Z" fill="#4285F4"></path>
  <path d="M31.0089 31.4998L39.6691 23.0037L20.857 12.3005C20.1732 11.8986 19.3751 11.6666 18.5212 11.6666C16.4308 11.6666 14.6672 13.0625 14.1539 14.9571C14.1533 14.9589 14.1533 14.9602 14.1533 14.9619L31.0089 31.4998Z" fill="#34A853"></path>
  <path d="M69.1772 19.8332C67.7849 19.8332 66.5873 19.3794 65.6218 18.4851C64.6558 17.5901 64.1665 16.4696 64.1665 15.1666C64.1665 13.8636 64.656 12.7451 65.6218 11.8481C66.5874 10.9536 67.7849 10.4999 69.1772 10.4999C69.8865 10.4999 70.5486 10.6134 71.1812 10.8498C71.8141 11.0861 72.3319 11.4142 72.7396 11.8436L72.8358 11.9451L71.7496 12.951L71.641 12.8274C71.3707 12.5196 71.0267 12.2805 70.591 12.1066C70.1568 11.9333 69.6812 11.8532 69.1772 11.8532C68.1966 11.8532 67.3829 12.1617 66.7034 12.7889C66.7033 12.789 66.7029 12.789 66.7028 12.7892C66.0387 13.429 65.7049 14.208 65.7049 15.1666C65.7049 16.1259 66.0392 16.9051 66.704 17.5452C67.3835 18.1721 68.1971 18.4823 69.1772 18.4823C70.0749 18.4823 70.8174 18.2501 71.4011 17.7905H71.4014C71.9448 17.3627 72.2709 16.7847 72.3863 16.0478H69.0219V14.7215H73.8403L73.861 14.8429C73.9004 15.076 73.9283 15.3011 73.9283 15.5173C73.9283 16.7548 73.521 17.7649 72.722 18.5081C71.8201 19.3939 70.6339 19.8333 69.1772 19.8333L69.1772 19.8332ZM111.017 19.8332C109.622 19.8332 108.439 19.3792 107.486 18.4851C107.485 18.485 107.485 18.4849 107.485 18.4848C107.485 18.4847 107.485 18.4846 107.485 18.4845C106.53 17.6 106.057 16.4792 106.057 15.1666C106.057 13.854 106.53 12.7332 107.485 11.8487C107.485 11.8486 107.485 11.8485 107.485 11.8484L107.486 11.8481C108.439 10.9538 109.622 10.4999 111.017 10.4999C112.408 10.4999 113.592 10.9539 114.545 11.8616C115.5 12.7459 115.974 13.8646 115.974 15.1666C115.974 16.4792 115.5 17.6 114.546 18.4845L114.546 18.4848C113.592 19.3795 112.397 19.8332 111.017 19.8332L111.017 19.8332ZM75.3072 19.6399V10.6933H75.4625H81.0749V12.0465H76.8189V14.5035H80.6576V15.8297H76.8189V18.2889H81.0749V19.6399H75.3072ZM84.6049 19.6399V12.0465H81.994V10.6933H88.7275V12.0465H88.5722H86.1166V19.6399H84.6049ZM93.0309 19.6399V10.6933H94.5426V10.8371V19.6399H93.0309ZM98.348 19.6399V12.0465H95.737V10.6933H102.471V12.0465H102.315H99.8597V19.6399H98.348ZM117.316 19.6399V10.6933H119.021L123.359 17.1273L123.321 15.9059V10.6933H124.833V19.6399H123.337L118.79 12.8808L118.828 14.1014V14.1033V19.6399H117.316ZM111.017 18.4823C111.997 18.4823 112.798 18.1724 113.45 17.5463L113.451 17.5451L113.452 17.5443C114.114 16.931 114.438 16.1414 114.438 15.1666C114.438 14.194 114.114 13.4019 113.452 12.7888L113.451 12.788L113.45 12.7871C112.798 12.1611 111.998 11.8531 111.017 11.8531C110.034 11.8531 109.234 12.1606 108.569 12.7865L108.568 12.7871C107.919 13.415 107.595 14.1943 107.595 15.1665C107.595 16.1411 107.919 16.9179 108.568 17.5459L108.569 17.5465C109.234 18.1726 110.034 18.4822 111.017 18.4822V18.4823Z" fill="white"></path>
  <path d="M167.544 46.077H170.471V26.3775H167.544V46.077ZM193.911 33.4741L190.555 42.0145H190.455L186.972 33.4741H183.819L189.043 45.4104L186.064 52.0507H189.117L197.167 33.4741H193.911ZM177.308 43.8395C176.351 43.8395 175.013 43.3575 175.013 42.1666C175.013 40.6461 176.679 40.0632 178.116 40.0632C179.403 40.0632 180.01 40.3415 180.791 40.7219C180.564 42.5469 178.999 43.8395 177.308 43.8395ZM177.663 33.0431C175.543 33.0431 173.349 33.9811 172.44 36.0592L175.038 37.1487C175.594 36.0592 176.627 35.7047 177.713 35.7047C179.227 35.7047 180.766 36.6163 180.791 38.2388V38.4413C180.261 38.1372 179.125 37.6812 177.738 37.6812C174.936 37.6812 172.086 39.2267 172.086 42.116C172.086 44.7517 174.382 46.45 176.955 46.45C178.923 46.45 180.01 45.5629 180.689 44.5234H180.791V46.045H183.618V38.4917C183.618 34.9944 181.017 33.0431 177.663 33.0431ZM159.571 35.872H155.407V29.1198H159.571C161.76 29.1198 163.002 30.9393 163.002 32.4958C163.002 34.0224 161.76 35.872 159.571 35.872ZM159.496 26.3775H152.481V46.077H155.407V38.6137H159.496C162.74 38.6137 165.93 36.255 165.93 32.4958C165.93 28.7375 162.74 26.3775 159.496 26.3775ZM121.246 43.8432C119.223 43.8432 117.531 42.1418 117.531 39.8072C117.531 37.4454 119.223 35.72 121.246 35.72C123.242 35.72 124.809 37.4454 124.809 39.8072C124.809 42.1418 123.242 43.8432 121.246 43.8432ZM124.607 34.5771H124.506C123.849 33.7903 122.585 33.0795 120.993 33.0795C117.656 33.0795 114.598 36.0247 114.598 39.8072C114.598 43.5638 117.656 46.4832 120.993 46.4832C122.585 46.4832 123.849 45.7722 124.506 44.9604H124.607V45.9243C124.607 48.4892 123.242 49.8594 121.043 49.8594C119.249 49.8594 118.137 48.5649 117.682 47.4736L115.13 48.5397C115.862 50.3161 117.808 52.5 121.043 52.5C124.481 52.5 127.388 50.4688 127.388 45.518V33.4857H124.607V34.5771ZM129.41 46.077H132.341V26.3775H129.41V46.077ZM136.663 39.5782C136.588 36.9886 138.661 35.6689 140.151 35.6689C141.314 35.6689 142.299 36.2531 142.629 37.0903L136.663 39.5782ZM145.762 37.3438C145.206 35.8468 143.513 33.0795 140.05 33.0795C136.612 33.0795 133.756 35.7958 133.756 39.7813C133.756 43.5386 136.588 46.4832 140.378 46.4832C143.436 46.4832 145.206 44.6052 145.939 43.5132L143.664 41.9898C142.906 43.107 141.87 43.8432 140.378 43.8432C138.887 43.8432 137.826 43.1576 137.144 41.812L146.065 38.1058L145.762 37.3438ZM74.6814 35.1359V37.979H81.4548C81.2526 39.5782 80.7219 40.7459 79.913 41.5583C78.927 42.548 77.3851 43.64 74.6814 43.64C70.511 43.64 67.2508 40.2638 67.2508 36.0752C67.2508 31.8865 70.511 28.5098 74.6814 28.5098C76.931 28.5098 78.5734 29.3985 79.7867 30.5409L81.784 28.535C80.0901 26.9106 77.841 25.6667 74.6814 25.6667C68.9685 25.6667 64.1665 30.3378 64.1665 36.0752C64.1665 41.812 68.9685 46.4832 74.6814 46.4832C77.7645 46.4832 80.0901 45.4676 81.9096 43.5638C83.78 41.6852 84.3616 39.0451 84.3616 36.9124C84.3616 36.2531 84.3106 35.6437 84.2095 35.1359H74.6814ZM92.0623 43.8432C90.0399 43.8432 88.2959 42.1677 88.2959 39.7813C88.2959 37.3696 90.0399 35.72 92.0623 35.72C94.0839 35.72 95.828 37.3696 95.828 39.7813C95.828 42.1677 94.0839 43.8432 92.0623 43.8432ZM92.0623 33.0795C88.3712 33.0795 85.3641 35.8973 85.3641 39.7813C85.3641 43.64 88.3712 46.4832 92.0623 46.4832C95.752 46.4832 98.7598 43.64 98.7598 39.7813C98.7598 35.8973 95.752 33.0795 92.0623 33.0795ZM106.673 43.8432C104.652 43.8432 102.907 42.1677 102.907 39.7813C102.907 37.3696 104.652 35.72 106.673 35.72C108.695 35.72 110.438 37.3696 110.438 39.7813C110.438 42.1677 108.695 43.8432 106.673 43.8432ZM106.673 33.0795C102.983 33.0795 99.9757 35.8973 99.9757 39.7813C99.9757 43.64 102.983 46.4832 106.673 46.4832C110.364 46.4832 113.371 43.64 113.371 39.7813C113.371 35.8973 110.364 33.0795 106.673 33.0795Z" fill="white"></path>
</svg>
