<?xml version="1.0" encoding="UTF-8"?>
<svg xmlns="http://www.w3.org/2000/svg" width="37" height="25" viewBox="0 0 37 25" fill="none">
  <g clip-path="url(#clip0_405_7732)">
    <path d="M0 0H36.5V24.3333H0V0Z" fill="#055E1C"></path>
    <path d="M13.085 14.5468C13.085 15.4233 13.7787 16.1338 14.6345 16.1338H19.2831C19.2831 16.8641 19.8613 17.4563 20.5744 17.4563H22.124C22.8372 17.4563 23.4153 16.8641 23.4153 16.1338V14.5468H13.085ZM23.5442 6.87646V10.5794C23.5442 11.1627 23.0808 11.6373 22.5112 11.6373V13.2243C23.9352 13.2243 25.0937 12.0378 25.0937 10.5794V6.87646H23.5442ZM12.4393 10.5794C12.4393 11.1628 11.9759 11.6374 11.4062 11.6374V13.2243C12.8303 13.2243 13.9888 12.0379 13.9888 10.5794V6.87654H12.4392V10.5794H12.4393Z" fill="white"></path>
    <path d="M21.2192 6.87646H22.7687V10.5794H21.2192V6.87646ZM18.8949 8.99268C18.8949 9.13854 18.779 9.25716 18.6366 9.25716C18.4942 9.25716 18.3783 9.13854 18.3783 8.99268V6.87668H16.8288V8.99268C16.8288 9.13854 16.7129 9.25716 16.5705 9.25716C16.4281 9.25716 16.3122 9.13854 16.3122 8.99268V6.87668H14.7627V8.99268C14.7627 10.0135 15.5737 10.8441 16.5704 10.8441C16.9543 10.8441 17.3104 10.7206 17.6035 10.5107C17.8965 10.7206 18.2527 10.8441 18.6365 10.8441C18.7138 10.8441 18.7898 10.8386 18.8647 10.8288C18.7549 11.2921 18.3475 11.6376 17.8618 11.6376V13.2245C19.2858 13.2245 20.4443 12.0381 20.4443 10.5796V6.87668H18.8947L18.8949 8.99268Z" fill="white"></path>
    <path d="M14.7627 11.6367H17.0868V13.2237H14.7627V11.6367Z" fill="white"></path>
  </g>
  <defs>
    <clipPath id="clip0_405_7732">
      <rect width="36.5" height="24.3333" fill="white"></rect>
    </clipPath>
  </defs>
</svg>
